<?xml version="1.0" encoding="UTF-8" standalone="no"?>
<!DOCTYPE svg PUBLIC "-//W3C//DTD SVG 1.1//EN"
 "http://www.w3.org/Graphics/SVG/1.1/DTD/svg11.dtd">
<!-- Generated by graphviz version 12.2.1 (0)
 -->
<!-- Title: samskara Pages: 1 -->
<svg width="2042pt" height="208pt"
 viewBox="0.00 0.00 2041.88 207.50" xmlns="http://www.w3.org/2000/svg" xmlns:xlink="http://www.w3.org/1999/xlink">
<g id="graph0" class="graph" transform="scale(1 1) rotate(0) translate(4 203.5)">
<title>samskara</title>
<polygon fill="white" stroke="none" points="-4,4 -4,-203.5 2037.88,-203.5 2037.88,4 -4,4"/>
<!-- Element -->
<g id="node1" class="node">
<title>Element</title>
<path fill="#ffffcc" stroke="black" d="M244.25,-36C244.25,-36 211.75,-36 211.75,-36 205.75,-36 199.75,-30 199.75,-24 199.75,-24 199.75,-12 199.75,-12 199.75,-6 205.75,0 211.75,0 211.75,0 244.25,0 244.25,0 250.25,0 256.25,-6 256.25,-12 256.25,-12 256.25,-24 256.25,-24 256.25,-30 250.25,-36 244.25,-36"/>
<text text-anchor="middle" x="228" y="-14.88" font-family="Helvetica,sans-Serif" font-size="10.00">Element</text>
</g>
<!-- Modality -->
<g id="node2" class="node">
<title>Modality</title>
<path fill="#ffffcc" stroke="black" d="M118.38,-36C118.38,-36 83.62,-36 83.62,-36 77.62,-36 71.62,-30 71.62,-24 71.62,-24 71.62,-12 71.62,-12 71.62,-6 77.62,0 83.62,0 83.62,0 118.38,0 118.38,0 124.38,0 130.38,-6 130.38,-12 130.38,-12 130.38,-24 130.38,-24 130.38,-30 124.38,-36 118.38,-36"/>
<text text-anchor="middle" x="101" y="-14.88" font-family="Helvetica,sans-Serif" font-size="10.00">Modality</text>
</g>
<!-- Aspect -->
<g id="node3" class="node">
<title>Aspect</title>
<path fill="#ffffcc" stroke="black" d="M281,-199.5C281,-199.5 251,-199.5 251,-199.5 245,-199.5 239,-193.5 239,-187.5 239,-187.5 239,-175.5 239,-175.5 239,-169.5 245,-163.5 251,-163.5 251,-163.5 281,-163.5 281,-163.5 287,-163.5 293,-169.5 293,-175.5 293,-175.5 293,-187.5 293,-187.5 293,-193.5 287,-199.5 281,-199.5"/>
<text text-anchor="middle" x="266" y="-178.38" font-family="Helvetica,sans-Serif" font-size="10.00">Aspect</text>
</g>
<!-- Sect -->
<g id="node4" class="node">
<title>Sect</title>
<path fill="#ffffcc" stroke="black" d="M353,-199.5C353,-199.5 323,-199.5 323,-199.5 317,-199.5 311,-193.5 311,-187.5 311,-187.5 311,-175.5 311,-175.5 311,-169.5 317,-163.5 323,-163.5 323,-163.5 353,-163.5 353,-163.5 359,-163.5 365,-169.5 365,-175.5 365,-175.5 365,-187.5 365,-187.5 365,-193.5 359,-199.5 353,-199.5"/>
<text text-anchor="middle" x="338" y="-178.38" font-family="Helvetica,sans-Serif" font-size="10.00">Sect</text>
</g>
<!-- Sign -->
<g id="node5" class="node">
<title>Sign</title>
<path fill="#ccffcc" stroke="black" d="M100,-117.75C100,-117.75 70,-117.75 70,-117.75 64,-117.75 58,-111.75 58,-105.75 58,-105.75 58,-93.75 58,-93.75 58,-87.75 64,-81.75 70,-81.75 70,-81.75 100,-81.75 100,-81.75 106,-81.75 112,-87.75 112,-93.75 112,-93.75 112,-105.75 112,-105.75 112,-111.75 106,-117.75 100,-117.75"/>
<text text-anchor="middle" x="85" y="-96.62" font-family="Helvetica,sans-Serif" font-size="10.00">Sign</text>
</g>
<!-- Sign&#45;&gt;Element -->
<g id="edge1" class="edge">
<title>Sign&#45;&gt;Element</title>
<path fill="none" stroke="darkgreen" d="M112.23,-83.56C134.07,-71.38 165,-54.14 189.39,-40.53"/>
<polygon fill="darkgreen" stroke="darkgreen" points="191.05,-43.62 198.08,-35.69 187.64,-37.5 191.05,-43.62"/>
<text text-anchor="middle" x="181.94" y="-56.15" font-family="Helvetica,sans-Serif" font-size="8.00">element</text>
</g>
<!-- Sign&#45;&gt;Modality -->
<g id="edge2" class="edge">
<title>Sign&#45;&gt;Modality</title>
<path fill="none" stroke="darkgreen" d="M83.72,-81.57C83.49,-73.17 83.8,-62.96 85.75,-54 86.26,-51.67 86.92,-49.31 87.69,-46.96"/>
<polygon fill="darkgreen" stroke="darkgreen" points="90.9,-48.35 91.29,-37.76 84.38,-45.8 90.9,-48.35"/>
<text text-anchor="middle" x="103.38" y="-56.15" font-family="Helvetica,sans-Serif" font-size="8.00">modality</text>
</g>
<!-- Planet -->
<g id="node12" class="node">
<title>Planet</title>
<path fill="#ffcccc" stroke="black" d="M42,-36C42,-36 12,-36 12,-36 6,-36 0,-30 0,-24 0,-24 0,-12 0,-12 0,-6 6,0 12,0 12,0 42,0 42,0 48,0 54,-6 54,-12 54,-12 54,-24 54,-24 54,-30 48,-36 42,-36"/>
<text text-anchor="middle" x="27" y="-14.88" font-family="Helvetica,sans-Serif" font-size="10.00">Planet</text>
</g>
<!-- Sign&#45;&gt;Planet -->
<g id="edge3" class="edge">
<title>Sign&#45;&gt;Planet</title>
<path fill="none" stroke="orange" stroke-dasharray="5,2" d="M72.41,-81.45C64.74,-70.89 54.77,-57.19 46.14,-45.31"/>
<polygon fill="orange" stroke="orange" points="49.16,-43.52 40.45,-37.49 43.5,-47.64 49.16,-43.52"/>
<text text-anchor="middle" x="68.85" y="-56.15" font-family="Helvetica,sans-Serif" font-size="8.00">ruler</text>
</g>
<!-- House -->
<g id="node6" class="node">
<title>House</title>
<path fill="#ccffcc" stroke="black" d="M425,-199.5C425,-199.5 395,-199.5 395,-199.5 389,-199.5 383,-193.5 383,-187.5 383,-187.5 383,-175.5 383,-175.5 383,-169.5 389,-163.5 395,-163.5 395,-163.5 425,-163.5 425,-163.5 431,-163.5 437,-169.5 437,-175.5 437,-175.5 437,-187.5 437,-187.5 437,-193.5 431,-199.5 425,-199.5"/>
<text text-anchor="middle" x="410" y="-178.38" font-family="Helvetica,sans-Serif" font-size="10.00">House</text>
</g>
<!-- Decan -->
<g id="node7" class="node">
<title>Decan</title>
<path fill="#ccffcc" stroke="black" d="M497,-199.5C497,-199.5 467,-199.5 467,-199.5 461,-199.5 455,-193.5 455,-187.5 455,-187.5 455,-175.5 455,-175.5 455,-169.5 461,-163.5 467,-163.5 467,-163.5 497,-163.5 497,-163.5 503,-163.5 509,-169.5 509,-175.5 509,-175.5 509,-187.5 509,-187.5 509,-193.5 503,-199.5 497,-199.5"/>
<text text-anchor="middle" x="482" y="-178.38" font-family="Helvetica,sans-Serif" font-size="10.00">Decan</text>
</g>
<!-- Nakshatra -->
<g id="node8" class="node">
<title>Nakshatra</title>
<path fill="#ccffcc" stroke="black" d="M581.12,-199.5C581.12,-199.5 538.88,-199.5 538.88,-199.5 532.88,-199.5 526.88,-193.5 526.88,-187.5 526.88,-187.5 526.88,-175.5 526.88,-175.5 526.88,-169.5 532.88,-163.5 538.88,-163.5 538.88,-163.5 581.12,-163.5 581.12,-163.5 587.12,-163.5 593.12,-169.5 593.12,-175.5 593.12,-175.5 593.12,-187.5 593.12,-187.5 593.12,-193.5 587.12,-199.5 581.12,-199.5"/>
<text text-anchor="middle" x="560" y="-178.38" font-family="Helvetica,sans-Serif" font-size="10.00">Nakshatra</text>
</g>
<!-- SolarDivision -->
<g id="node9" class="node">
<title>SolarDivision</title>
<path fill="#ccffcc" stroke="black" d="M679.25,-199.5C679.25,-199.5 622.75,-199.5 622.75,-199.5 616.75,-199.5 610.75,-193.5 610.75,-187.5 610.75,-187.5 610.75,-175.5 610.75,-175.5 610.75,-169.5 616.75,-163.5 622.75,-163.5 622.75,-163.5 679.25,-163.5 679.25,-163.5 685.25,-163.5 691.25,-169.5 691.25,-175.5 691.25,-175.5 691.25,-187.5 691.25,-187.5 691.25,-193.5 685.25,-199.5 679.25,-199.5"/>
<text text-anchor="middle" x="651" y="-178.38" font-family="Helvetica,sans-Serif" font-size="10.00">SolarDivision</text>
</g>
<!-- Sephirah -->
<g id="node10" class="node">
<title>Sephirah</title>
<path fill="#ccffcc" stroke="black" d="M756.38,-199.5C756.38,-199.5 721.62,-199.5 721.62,-199.5 715.62,-199.5 709.62,-193.5 709.62,-187.5 709.62,-187.5 709.62,-175.5 709.62,-175.5 709.62,-169.5 715.62,-163.5 721.62,-163.5 721.62,-163.5 756.38,-163.5 756.38,-163.5 762.38,-163.5 768.38,-169.5 768.38,-175.5 768.38,-175.5 768.38,-187.5 768.38,-187.5 768.38,-193.5 762.38,-199.5 756.38,-199.5"/>
<text text-anchor="middle" x="739" y="-178.38" font-family="Helvetica,sans-Serif" font-size="10.00">Sephirah</text>
</g>
<!-- Path -->
<g id="node11" class="node">
<title>Path</title>
<path fill="#ccffcc" stroke="black" d="M828,-199.5C828,-199.5 798,-199.5 798,-199.5 792,-199.5 786,-193.5 786,-187.5 786,-187.5 786,-175.5 786,-175.5 786,-169.5 792,-163.5 798,-163.5 798,-163.5 828,-163.5 828,-163.5 834,-163.5 840,-169.5 840,-175.5 840,-175.5 840,-187.5 840,-187.5 840,-193.5 834,-199.5 828,-199.5"/>
<text text-anchor="middle" x="813" y="-178.38" font-family="Helvetica,sans-Serif" font-size="10.00">Path</text>
</g>
<!-- Rulership -->
<g id="node13" class="node">
<title>Rulership</title>
<path fill="#ffcccc" stroke="black" d="M56.88,-199.5C56.88,-199.5 19.12,-199.5 19.12,-199.5 13.12,-199.5 7.12,-193.5 7.12,-187.5 7.12,-187.5 7.12,-175.5 7.12,-175.5 7.12,-169.5 13.12,-163.5 19.12,-163.5 19.12,-163.5 56.88,-163.5 56.88,-163.5 62.88,-163.5 68.88,-169.5 68.88,-175.5 68.88,-175.5 68.88,-187.5 68.88,-187.5 68.88,-193.5 62.88,-199.5 56.88,-199.5"/>
<text text-anchor="middle" x="38" y="-178.38" font-family="Helvetica,sans-Serif" font-size="10.00">Rulership</text>
</g>
<!-- Rulership&#45;&gt;Sign -->
<g id="edge8" class="edge">
<title>Rulership&#45;&gt;Sign</title>
<path fill="none" stroke="darkgreen" d="M48.2,-163.2C54.3,-152.85 62.17,-139.48 69.08,-127.77"/>
<polygon fill="darkgreen" stroke="darkgreen" points="71.99,-129.72 74.05,-119.32 65.96,-126.16 71.99,-129.72"/>
<text text-anchor="middle" x="72.94" y="-137.9" font-family="Helvetica,sans-Serif" font-size="8.00">sign</text>
</g>
<!-- Rulership&#45;&gt;Planet -->
<g id="edge7" class="edge">
<title>Rulership&#45;&gt;Planet</title>
<path fill="none" stroke="darkgreen" d="M32.59,-163.12C29,-150.64 24.62,-133.33 22.75,-117.75 19.93,-94.19 21.4,-67.26 23.34,-47.49"/>
<polygon fill="darkgreen" stroke="darkgreen" points="26.8,-48.02 24.42,-37.69 19.85,-47.25 26.8,-48.02"/>
<text text-anchor="middle" x="35.88" y="-97.03" font-family="Helvetica,sans-Serif" font-size="8.00">planet</text>
</g>
<!-- Measure -->
<g id="node14" class="node">
<title>Measure</title>
<path fill="#ccccff" stroke="black" d="M209,-199.5C209,-199.5 175,-199.5 175,-199.5 169,-199.5 163,-193.5 163,-187.5 163,-187.5 163,-175.5 163,-175.5 163,-169.5 169,-163.5 175,-163.5 175,-163.5 209,-163.5 209,-163.5 215,-163.5 221,-169.5 221,-175.5 221,-175.5 221,-187.5 221,-187.5 221,-193.5 215,-199.5 209,-199.5"/>
<text text-anchor="middle" x="192" y="-178.38" font-family="Helvetica,sans-Serif" font-size="10.00">Measure</text>
</g>
<!-- Measure&#45;&gt;Element -->
<g id="edge5" class="edge">
<title>Measure&#45;&gt;Element</title>
<path fill="none" stroke="darkgreen" d="M206.52,-163.12C215.5,-151.19 226.21,-134.52 231,-117.75 237.58,-94.7 236.08,-67.38 233.36,-47.32"/>
<polygon fill="darkgreen" stroke="darkgreen" points="236.85,-47 231.86,-37.66 229.94,-48.08 236.85,-47"/>
<text text-anchor="middle" x="252.53" y="-97.03" font-family="Helvetica,sans-Serif" font-size="8.00">element</text>
</g>
<!-- Measure&#45;&gt;Modality -->
<g id="edge6" class="edge">
<title>Measure&#45;&gt;Modality</title>
<path fill="none" stroke="darkgreen" d="M192.14,-163C192.06,-132.45 190.32,-71 178,-54 169.23,-41.9 155.26,-33.89 141.61,-28.63"/>
<polygon fill="darkgreen" stroke="darkgreen" points="142.87,-25.36 132.27,-25.46 140.62,-31.99 142.87,-25.36"/>
<text text-anchor="middle" x="208.29" y="-97.03" font-family="Helvetica,sans-Serif" font-size="8.00">modality</text>
</g>
<!-- Measure&#45;&gt;Sign -->
<g id="edge4" class="edge">
<title>Measure&#45;&gt;Sign</title>
<path fill="none" stroke="blue" d="M168.78,-163.2C153.64,-151.91 133.67,-137.02 117.03,-124.62"/>
<polygon fill="blue" stroke="blue" points="119.5,-122.1 109.39,-118.93 115.31,-127.71 119.5,-122.1"/>
<text text-anchor="middle" x="153.53" y="-137.9" font-family="Helvetica,sans-Serif" font-size="8.00">sign</text>
</g>
<!-- Correspondence -->
<g id="node15" class="node">
<title>Correspondence</title>
<path fill="#ccccff" stroke="black" d="M940.38,-199.5C940.38,-199.5 869.62,-199.5 869.62,-199.5 863.62,-199.5 857.62,-193.5 857.62,-187.5 857.62,-187.5 857.62,-175.5 857.62,-175.5 857.62,-169.5 863.62,-163.5 869.62,-163.5 869.62,-163.5 940.38,-163.5 940.38,-163.5 946.38,-163.5 952.38,-169.5 952.38,-175.5 952.38,-175.5 952.38,-187.5 952.38,-187.5 952.38,-193.5 946.38,-199.5 940.38,-199.5"/>
<text text-anchor="middle" x="905" y="-178.38" font-family="Helvetica,sans-Serif" font-size="10.00">Correspondence</text>
</g>
<!-- TarotMajor -->
<g id="node16" class="node">
<title>TarotMajor</title>
<path fill="#ccccff" stroke="black" d="M1025.88,-199.5C1025.88,-199.5 982.12,-199.5 982.12,-199.5 976.12,-199.5 970.12,-193.5 970.12,-187.5 970.12,-187.5 970.12,-175.5 970.12,-175.5 970.12,-169.5 976.12,-163.5 982.12,-163.5 982.12,-163.5 1025.88,-163.5 1025.88,-163.5 1031.88,-163.5 1037.88,-169.5 1037.88,-175.5 1037.88,-175.5 1037.88,-187.5 1037.88,-187.5 1037.88,-193.5 1031.88,-199.5 1025.88,-199.5"/>
<text text-anchor="middle" x="1004" y="-178.38" font-family="Helvetica,sans-Serif" font-size="10.00">TarotMajor</text>
</g>
<!-- thought -->
<g id="node17" class="node">
<title>thought</title>
<path fill="#e0e0e0" stroke="black" d="M1109,-117.75C1109,-117.75 1079,-117.75 1079,-117.75 1073,-117.75 1067,-111.75 1067,-105.75 1067,-105.75 1067,-93.75 1067,-93.75 1067,-87.75 1073,-81.75 1079,-81.75 1079,-81.75 1109,-81.75 1109,-81.75 1115,-81.75 1121,-87.75 1121,-93.75 1121,-93.75 1121,-105.75 1121,-105.75 1121,-111.75 1115,-117.75 1109,-117.75"/>
<text text-anchor="middle" x="1094" y="-96.62" font-family="Helvetica,sans-Serif" font-size="10.00">thought</text>
</g>
<!-- thought_link -->
<g id="node18" class="node">
<title>thought_link</title>
<path fill="#e0e0e0" stroke="black" d="M1120.38,-199.5C1120.38,-199.5 1067.62,-199.5 1067.62,-199.5 1061.62,-199.5 1055.62,-193.5 1055.62,-187.5 1055.62,-187.5 1055.62,-175.5 1055.62,-175.5 1055.62,-169.5 1061.62,-163.5 1067.62,-163.5 1067.62,-163.5 1120.38,-163.5 1120.38,-163.5 1126.38,-163.5 1132.38,-169.5 1132.38,-175.5 1132.38,-175.5 1132.38,-187.5 1132.38,-187.5 1132.38,-193.5 1126.38,-199.5 1120.38,-199.5"/>
<text text-anchor="middle" x="1094" y="-178.38" font-family="Helvetica,sans-Serif" font-size="10.00">thought_link</text>
</g>
<!-- thought_link&#45;&gt;thought -->
<g id="edge9" class="edge">
<title>thought_link&#45;&gt;thought</title>
<path fill="none" stroke="darkgreen" d="M1094,-163.2C1094,-153.27 1094,-140.56 1094,-129.2"/>
<polygon fill="darkgreen" stroke="darkgreen" points="1097.5,-129.53 1094,-119.53 1090.5,-129.53 1097.5,-129.53"/>
<text text-anchor="middle" x="1109" y="-137.9" font-family="Helvetica,sans-Serif" font-size="8.00">from/to</text>
</g>
<!-- principle -->
<g id="node19" class="node">
<title>principle</title>
<path fill="#e0e0e0" stroke="black" d="M1196,-199.5C1196,-199.5 1162,-199.5 1162,-199.5 1156,-199.5 1150,-193.5 1150,-187.5 1150,-187.5 1150,-175.5 1150,-175.5 1150,-169.5 1156,-163.5 1162,-163.5 1162,-163.5 1196,-163.5 1196,-163.5 1202,-163.5 1208,-169.5 1208,-175.5 1208,-175.5 1208,-187.5 1208,-187.5 1208,-193.5 1202,-199.5 1196,-199.5"/>
<text text-anchor="middle" x="1179" y="-178.38" font-family="Helvetica,sans-Serif" font-size="10.00">principle</text>
</g>
<!-- agent -->
<g id="node20" class="node">
<title>agent</title>
<path fill="#e0e0e0" stroke="black" d="M1268,-199.5C1268,-199.5 1238,-199.5 1238,-199.5 1232,-199.5 1226,-193.5 1226,-187.5 1226,-187.5 1226,-175.5 1226,-175.5 1226,-169.5 1232,-163.5 1238,-163.5 1238,-163.5 1268,-163.5 1268,-163.5 1274,-163.5 1280,-169.5 1280,-175.5 1280,-175.5 1280,-187.5 1280,-187.5 1280,-193.5 1274,-199.5 1268,-199.5"/>
<text text-anchor="middle" x="1253" y="-178.38" font-family="Helvetica,sans-Serif" font-size="10.00">agent</text>
</g>
<!-- repo -->
<g id="node21" class="node">
<title>repo</title>
<path fill="#e0e0e0" stroke="black" d="M1347,-117.75C1347,-117.75 1317,-117.75 1317,-117.75 1311,-117.75 1305,-111.75 1305,-105.75 1305,-105.75 1305,-93.75 1305,-93.75 1305,-87.75 1311,-81.75 1317,-81.75 1317,-81.75 1347,-81.75 1347,-81.75 1353,-81.75 1359,-87.75 1359,-93.75 1359,-93.75 1359,-105.75 1359,-105.75 1359,-111.75 1353,-117.75 1347,-117.75"/>
<text text-anchor="middle" x="1332" y="-96.62" font-family="Helvetica,sans-Serif" font-size="10.00">repo</text>
</g>
<!-- repo_state -->
<g id="node22" class="node">
<title>repo_state</title>
<path fill="#e0e0e0" stroke="black" d="M1353.88,-199.5C1353.88,-199.5 1310.12,-199.5 1310.12,-199.5 1304.12,-199.5 1298.12,-193.5 1298.12,-187.5 1298.12,-187.5 1298.12,-175.5 1298.12,-175.5 1298.12,-169.5 1304.12,-163.5 1310.12,-163.5 1310.12,-163.5 1353.88,-163.5 1353.88,-163.5 1359.88,-163.5 1365.88,-169.5 1365.88,-175.5 1365.88,-175.5 1365.88,-187.5 1365.88,-187.5 1365.88,-193.5 1359.88,-199.5 1353.88,-199.5"/>
<text text-anchor="middle" x="1332" y="-178.38" font-family="Helvetica,sans-Serif" font-size="10.00">repo_state</text>
</g>
<!-- repo_state&#45;&gt;repo -->
<g id="edge10" class="edge">
<title>repo_state&#45;&gt;repo</title>
<path fill="none" stroke="darkgreen" d="M1332,-163.2C1332,-153.27 1332,-140.56 1332,-129.2"/>
<polygon fill="darkgreen" stroke="darkgreen" points="1335.5,-129.53 1332,-119.53 1328.5,-129.53 1335.5,-129.53"/>
<text text-anchor="middle" x="1343.62" y="-137.9" font-family="Helvetica,sans-Serif" font-size="8.00">name</text>
</g>
<!-- source -->
<g id="node23" class="node">
<title>source</title>
<path fill="#cce0ff" stroke="black" d="M1428,-199.5C1428,-199.5 1398,-199.5 1398,-199.5 1392,-199.5 1386,-193.5 1386,-187.5 1386,-187.5 1386,-175.5 1386,-175.5 1386,-169.5 1392,-163.5 1398,-163.5 1398,-163.5 1428,-163.5 1428,-163.5 1434,-163.5 1440,-169.5 1440,-175.5 1440,-175.5 1440,-187.5 1440,-187.5 1440,-193.5 1434,-199.5 1428,-199.5"/>
<text text-anchor="middle" x="1413" y="-178.38" font-family="Helvetica,sans-Serif" font-size="10.00">source</text>
</g>
<!-- SourceType -->
<g id="node24" class="node">
<title>SourceType</title>
<path fill="#cce0ff" stroke="black" d="M1436.75,-117.75C1436.75,-117.75 1389.25,-117.75 1389.25,-117.75 1383.25,-117.75 1377.25,-111.75 1377.25,-105.75 1377.25,-105.75 1377.25,-93.75 1377.25,-93.75 1377.25,-87.75 1383.25,-81.75 1389.25,-81.75 1389.25,-81.75 1436.75,-81.75 1436.75,-81.75 1442.75,-81.75 1448.75,-87.75 1448.75,-93.75 1448.75,-93.75 1448.75,-105.75 1448.75,-105.75 1448.75,-111.75 1442.75,-117.75 1436.75,-117.75"/>
<text text-anchor="middle" x="1413" y="-96.62" font-family="Helvetica,sans-Serif" font-size="10.00">SourceType</text>
</g>
<!-- source&#45;&gt;SourceType -->
<g id="edge11" class="edge">
<title>source&#45;&gt;SourceType</title>
<path fill="none" stroke="darkgreen" d="M1413,-163.2C1413,-153.27 1413,-140.56 1413,-129.2"/>
<polygon fill="darkgreen" stroke="darkgreen" points="1416.5,-129.53 1413,-119.53 1409.5,-129.53 1416.5,-129.53"/>
<text text-anchor="middle" x="1437.75" y="-137.9" font-family="Helvetica,sans-Serif" font-size="8.00">source_type</text>
</g>
<!-- relation_meta -->
<g id="node25" class="node">
<title>relation_meta</title>
<path fill="#e0e0e0" stroke="black" d="M1530.12,-199.5C1530.12,-199.5 1469.88,-199.5 1469.88,-199.5 1463.88,-199.5 1457.88,-193.5 1457.88,-187.5 1457.88,-187.5 1457.88,-175.5 1457.88,-175.5 1457.88,-169.5 1463.88,-163.5 1469.88,-163.5 1469.88,-163.5 1530.12,-163.5 1530.12,-163.5 1536.12,-163.5 1542.12,-169.5 1542.12,-175.5 1542.12,-175.5 1542.12,-187.5 1542.12,-187.5 1542.12,-193.5 1536.12,-199.5 1530.12,-199.5"/>
<text text-anchor="middle" x="1500" y="-178.38" font-family="Helvetica,sans-Serif" font-size="10.00">relation_meta</text>
</g>
<!-- world_schema -->
<g id="node30" class="node">
<title>world_schema</title>
<path fill="#d0d0ff" stroke="black" d="M1645.25,-117.75C1645.25,-117.75 1582.75,-117.75 1582.75,-117.75 1576.75,-117.75 1570.75,-111.75 1570.75,-105.75 1570.75,-105.75 1570.75,-93.75 1570.75,-93.75 1570.75,-87.75 1576.75,-81.75 1582.75,-81.75 1582.75,-81.75 1645.25,-81.75 1645.25,-81.75 1651.25,-81.75 1657.25,-87.75 1657.25,-93.75 1657.25,-93.75 1657.25,-105.75 1657.25,-105.75 1657.25,-111.75 1651.25,-117.75 1645.25,-117.75"/>
<text text-anchor="middle" x="1614" y="-96.62" font-family="Helvetica,sans-Serif" font-size="10.00">world_schema</text>
</g>
<!-- relation_meta&#45;&gt;world_schema -->
<g id="edge12" class="edge">
<title>relation_meta&#45;&gt;world_schema</title>
<path fill="none" stroke="darkgreen" d="M1517.84,-163.39C1527.43,-154.62 1539.68,-144.06 1551.5,-135.75 1557.31,-131.67 1563.63,-127.66 1569.96,-123.91"/>
<polygon fill="darkgreen" stroke="darkgreen" points="1571.58,-127.01 1578.51,-118.99 1568.09,-120.94 1571.58,-127.01"/>
<text text-anchor="middle" x="1580.75" y="-137.9" font-family="Helvetica,sans-Serif" font-size="8.00">relation_name</text>
</g>
<!-- relation_morphism -->
<g id="node26" class="node">
<title>relation_morphism</title>
<path fill="#e0e0e0" stroke="black" d="M1656.12,-199.5C1656.12,-199.5 1571.88,-199.5 1571.88,-199.5 1565.88,-199.5 1559.88,-193.5 1559.88,-187.5 1559.88,-187.5 1559.88,-175.5 1559.88,-175.5 1559.88,-169.5 1565.88,-163.5 1571.88,-163.5 1571.88,-163.5 1656.12,-163.5 1656.12,-163.5 1662.12,-163.5 1668.12,-169.5 1668.12,-175.5 1668.12,-175.5 1668.12,-187.5 1668.12,-187.5 1668.12,-193.5 1662.12,-199.5 1656.12,-199.5"/>
<text text-anchor="middle" x="1614" y="-178.38" font-family="Helvetica,sans-Serif" font-size="10.00">relation_morphism</text>
</g>
<!-- relation_morphism&#45;&gt;world_schema -->
<g id="edge13" class="edge">
<title>relation_morphism&#45;&gt;world_schema</title>
<path fill="none" stroke="darkgreen" d="M1614,-163.2C1614,-153.27 1614,-140.56 1614,-129.2"/>
<polygon fill="darkgreen" stroke="darkgreen" points="1617.5,-129.53 1614,-119.53 1610.5,-129.53 1617.5,-129.53"/>
<text text-anchor="middle" x="1641.75" y="-137.9" font-family="Helvetica,sans-Serif" font-size="8.00">source/target</text>
</g>
<!-- relation_tradition -->
<g id="node27" class="node">
<title>relation_tradition</title>
<path fill="#e0e0e0" stroke="black" d="M1774,-199.5C1774,-199.5 1698,-199.5 1698,-199.5 1692,-199.5 1686,-193.5 1686,-187.5 1686,-187.5 1686,-175.5 1686,-175.5 1686,-169.5 1692,-163.5 1698,-163.5 1698,-163.5 1774,-163.5 1774,-163.5 1780,-163.5 1786,-169.5 1786,-175.5 1786,-175.5 1786,-187.5 1786,-187.5 1786,-193.5 1780,-199.5 1774,-199.5"/>
<text text-anchor="middle" x="1736" y="-178.38" font-family="Helvetica,sans-Serif" font-size="10.00">relation_tradition</text>
</g>
<!-- relation_tradition&#45;&gt;world_schema -->
<g id="edge14" class="edge">
<title>relation_tradition&#45;&gt;world_schema</title>
<path fill="none" stroke="darkgreen" d="M1713.11,-163.17C1701.57,-154.64 1687.24,-144.36 1674,-135.75 1667.96,-131.82 1661.48,-127.82 1655.08,-124"/>
<polygon fill="darkgreen" stroke="darkgreen" points="1656.88,-121 1646.48,-118.94 1653.33,-127.03 1656.88,-121"/>
<text text-anchor="middle" x="1717.15" y="-137.9" font-family="Helvetica,sans-Serif" font-size="8.00">relation_name</text>
</g>
<!-- Phase -->
<g id="node28" class="node">
<title>Phase</title>
<path fill="#e8e8ff" stroke="black" d="M1846,-199.5C1846,-199.5 1816,-199.5 1816,-199.5 1810,-199.5 1804,-193.5 1804,-187.5 1804,-187.5 1804,-175.5 1804,-175.5 1804,-169.5 1810,-163.5 1816,-163.5 1816,-163.5 1846,-163.5 1846,-163.5 1852,-163.5 1858,-169.5 1858,-175.5 1858,-175.5 1858,-187.5 1858,-187.5 1858,-193.5 1852,-199.5 1846,-199.5"/>
<text text-anchor="middle" x="1831" y="-178.38" font-family="Helvetica,sans-Serif" font-size="10.00">Phase</text>
</g>
<!-- Dignity -->
<g id="node29" class="node">
<title>Dignity</title>
<path fill="#e8e8ff" stroke="black" d="M1918,-199.5C1918,-199.5 1888,-199.5 1888,-199.5 1882,-199.5 1876,-193.5 1876,-187.5 1876,-187.5 1876,-175.5 1876,-175.5 1876,-169.5 1882,-163.5 1888,-163.5 1888,-163.5 1918,-163.5 1918,-163.5 1924,-163.5 1930,-169.5 1930,-175.5 1930,-175.5 1930,-187.5 1930,-187.5 1930,-193.5 1924,-199.5 1918,-199.5"/>
<text text-anchor="middle" x="1903" y="-178.38" font-family="Helvetica,sans-Serif" font-size="10.00">Dignity</text>
</g>
<!-- world_commit -->
<g id="node31" class="node">
<title>world_commit</title>
<path fill="#d0d0ff" stroke="black" d="M2021.88,-199.5C2021.88,-199.5 1960.12,-199.5 1960.12,-199.5 1954.12,-199.5 1948.12,-193.5 1948.12,-187.5 1948.12,-187.5 1948.12,-175.5 1948.12,-175.5 1948.12,-169.5 1954.12,-163.5 1960.12,-163.5 1960.12,-163.5 2021.88,-163.5 2021.88,-163.5 2027.88,-163.5 2033.88,-169.5 2033.88,-175.5 2033.88,-175.5 2033.88,-187.5 2033.88,-187.5 2033.88,-193.5 2027.88,-199.5 2021.88,-199.5"/>
<text text-anchor="middle" x="1991" y="-178.38" font-family="Helvetica,sans-Serif" font-size="10.00">world_commit</text>
</g>
</g>
</svg>
