<?xml version="1.0" encoding="UTF-8" standalone="no"?>
<!DOCTYPE svg PUBLIC "-//W3C//DTD SVG 1.1//EN"
 "http://www.w3.org/Graphics/SVG/1.1/DTD/svg11.dtd">
<!-- Generated by graphviz version 12.2.1 (0)
 -->
<!-- Title: samskara Pages: 1 -->
<svg width="766pt" height="1946pt"
 viewBox="0.00 0.00 766.25 1946.00" xmlns="http://www.w3.org/2000/svg" xmlns:xlink="http://www.w3.org/1999/xlink">
<g id="graph0" class="graph" transform="scale(1 1) rotate(0) translate(4 1942)">
<title>samskara</title>
<g id="clust1" class="cluster">
<title>cluster_qualitative</title>
<path fill="none" stroke="#8b4513" stroke-dasharray="5,2" d="M505.25,-1166C505.25,-1166 570,-1166 570,-1166 576,-1166 582,-1172 582,-1178 582,-1178 582,-1393 582,-1393 582,-1399 576,-1405 570,-1405 570,-1405 505.25,-1405 505.25,-1405 499.25,-1405 493.25,-1399 493.25,-1393 493.25,-1393 493.25,-1178 493.25,-1178 493.25,-1172 499.25,-1166 505.25,-1166"/>
<text text-anchor="middle" x="537.62" y="-1387.7" font-family="Helvetica,sans-Serif" font-size="14.00" fill="#8b4513">qualitative</text>
</g>
<g id="clust2" class="cluster">
<title>cluster_positional</title>
<path fill="none" stroke="#2e8b57" stroke-dasharray="5,2" d="M58.25,-1287C58.25,-1287 346.12,-1287 346.12,-1287 352.12,-1287 358.12,-1293 358.12,-1299 358.12,-1299 358.12,-1352 358.12,-1352 358.12,-1358 352.12,-1364 346.12,-1364 346.12,-1364 58.25,-1364 58.25,-1364 52.25,-1364 46.25,-1358 46.25,-1352 46.25,-1352 46.25,-1299 46.25,-1299 46.25,-1293 52.25,-1287 58.25,-1287"/>
<text text-anchor="middle" x="202.19" y="-1346.7" font-family="Helvetica,sans-Serif" font-size="14.00" fill="#2e8b57">positional</text>
</g>
<g id="clust3" class="cluster">
<title>cluster_symbolic</title>
<path fill="none" stroke="#4169e1" stroke-dasharray="5,2" d="M60.12,-1202C60.12,-1202 115.38,-1202 115.38,-1202 121.38,-1202 127.38,-1208 127.38,-1214 127.38,-1214 127.38,-1267 127.38,-1267 127.38,-1273 121.38,-1279 115.38,-1279 115.38,-1279 60.12,-1279 60.12,-1279 54.12,-1279 48.12,-1273 48.12,-1267 48.12,-1267 48.12,-1214 48.12,-1214 48.12,-1208 54.12,-1202 60.12,-1202"/>
<text text-anchor="middle" x="87.75" y="-1261.7" font-family="Helvetica,sans-Serif" font-size="14.00" fill="#4169e1">symbolic</text>
</g>
<g id="clust4" class="cluster">
<title>cluster_agentive</title>
<path fill="none" stroke="#8b0000" stroke-dasharray="5,2" d="M494.12,-1413C494.12,-1413 730.62,-1413 730.62,-1413 736.62,-1413 742.62,-1419 742.62,-1425 742.62,-1425 742.62,-1532 742.62,-1532 742.62,-1538 736.62,-1544 730.62,-1544 730.62,-1544 494.12,-1544 494.12,-1544 488.12,-1544 482.12,-1538 482.12,-1532 482.12,-1532 482.12,-1425 482.12,-1425 482.12,-1419 488.12,-1413 494.12,-1413"/>
<text text-anchor="middle" x="612.38" y="-1526.7" font-family="Helvetica,sans-Serif" font-size="14.00" fill="#8b0000">agentive</text>
</g>
<g id="clust5" class="cluster">
<title>cluster_structural</title>
<path fill="none" stroke="#555555" stroke-dasharray="5,2" d="M276.38,-8C276.38,-8 579.38,-8 579.38,-8 585.38,-8 591.38,-14 591.38,-20 591.38,-20 591.38,-505 591.38,-505 591.38,-511 585.38,-517 579.38,-517 579.38,-517 276.38,-517 276.38,-517 270.38,-517 264.38,-511 264.38,-505 264.38,-505 264.38,-20 264.38,-20 264.38,-14 270.38,-8 276.38,-8"/>
<text text-anchor="middle" x="427.88" y="-499.7" font-family="Helvetica,sans-Serif" font-size="14.00" fill="#555555">structural</text>
</g>
<g id="clust6" class="cluster">
<title>cluster_governance</title>
<path fill="none" stroke="#800080" stroke-dasharray="5,2" d="M32.75,-610C32.75,-610 348.5,-610 348.5,-610 354.5,-610 360.5,-616 360.5,-622 360.5,-622 360.5,-1161 360.5,-1161 360.5,-1167 354.5,-1173 348.5,-1173 348.5,-1173 32.75,-1173 32.75,-1173 26.75,-1173 20.75,-1167 20.75,-1161 20.75,-1161 20.75,-622 20.75,-622 20.75,-616 26.75,-610 32.75,-610"/>
<text text-anchor="middle" x="190.62" y="-1155.7" font-family="Helvetica,sans-Serif" font-size="14.00" fill="#800080">governance</text>
</g>
<g id="clust7" class="cluster">
<title>cluster_taxonomy</title>
<path fill="none" stroke="#006400" stroke-dasharray="5,2" d="M25.62,-1552C25.62,-1552 586.5,-1552 586.5,-1552 592.5,-1552 598.5,-1558 598.5,-1564 598.5,-1564 598.5,-1779 598.5,-1779 598.5,-1785 592.5,-1791 586.5,-1791 586.5,-1791 25.62,-1791 25.62,-1791 19.62,-1791 13.62,-1785 13.62,-1779 13.62,-1779 13.62,-1564 13.62,-1564 13.62,-1558 19.62,-1552 25.62,-1552"/>
<text text-anchor="middle" x="306.06" y="-1773.7" font-family="Helvetica,sans-Serif" font-size="14.00" fill="#006400">taxonomy</text>
</g>
<g id="clust8" class="cluster">
<title>cluster_sandbox</title>
<path fill="none" stroke="#ff8c00" stroke-dasharray="5,2" d="M263.25,-525C263.25,-525 738.25,-525 738.25,-525 744.25,-525 750.25,-531 750.25,-537 750.25,-537 750.25,-590 750.25,-590 750.25,-596 744.25,-602 738.25,-602 738.25,-602 263.25,-602 263.25,-602 257.25,-602 251.25,-596 251.25,-590 251.25,-590 251.25,-537 251.25,-537 251.25,-531 257.25,-525 263.25,-525"/>
<text text-anchor="middle" x="500.75" y="-584.7" font-family="Helvetica,sans-Serif" font-size="14.00" fill="#ff8c00">sandbox</text>
</g>
<g id="clust9" class="cluster">
<title>cluster_infrastructure</title>
<path fill="none" stroke="#696969" stroke-dasharray="5,2" d="M20,-1799C20,-1799 358.62,-1799 358.62,-1799 364.62,-1799 370.62,-1805 370.62,-1811 370.62,-1811 370.62,-1918 370.62,-1918 370.62,-1924 364.62,-1930 358.62,-1930 358.62,-1930 20,-1930 20,-1930 14,-1930 8,-1924 8,-1918 8,-1918 8,-1811 8,-1811 8,-1805 14,-1799 20,-1799"/>
<text text-anchor="middle" x="189.31" y="-1912.7" font-family="Helvetica,sans-Serif" font-size="14.00" fill="#696969">infrastructure</text>
</g>
<!-- Element -->
<g id="node1" class="node">
<title>Element</title>
<path fill="#ffe4b5" stroke="black" d="M555.62,-1210C555.62,-1210 518.62,-1210 518.62,-1210 512.62,-1210 506.62,-1204 506.62,-1198 506.62,-1198 506.62,-1186 506.62,-1186 506.62,-1180 512.62,-1174 518.62,-1174 518.62,-1174 555.62,-1174 555.62,-1174 561.62,-1174 567.62,-1180 567.62,-1186 567.62,-1186 567.62,-1198 567.62,-1198 567.62,-1204 561.62,-1210 555.62,-1210"/>
<text text-anchor="middle" x="537.12" y="-1188.3" font-family="Helvetica,sans-Serif" font-size="11.00">Element</text>
</g>
<!-- Modality -->
<g id="node2" class="node">
<title>Modality</title>
<path fill="#ffe4b5" stroke="black" d="M556.75,-1264C556.75,-1264 517.5,-1264 517.5,-1264 511.5,-1264 505.5,-1258 505.5,-1252 505.5,-1252 505.5,-1240 505.5,-1240 505.5,-1234 511.5,-1228 517.5,-1228 517.5,-1228 556.75,-1228 556.75,-1228 562.75,-1228 568.75,-1234 568.75,-1240 568.75,-1240 568.75,-1252 568.75,-1252 568.75,-1258 562.75,-1264 556.75,-1264"/>
<text text-anchor="middle" x="537.12" y="-1242.3" font-family="Helvetica,sans-Serif" font-size="11.00">Modality</text>
</g>
<!-- Aspect -->
<g id="node3" class="node">
<title>Aspect</title>
<path fill="#ffe4b5" stroke="black" d="M552.12,-1318C552.12,-1318 522.12,-1318 522.12,-1318 516.12,-1318 510.12,-1312 510.12,-1306 510.12,-1306 510.12,-1294 510.12,-1294 510.12,-1288 516.12,-1282 522.12,-1282 522.12,-1282 552.12,-1282 552.12,-1282 558.12,-1282 564.12,-1288 564.12,-1294 564.12,-1294 564.12,-1306 564.12,-1306 564.12,-1312 558.12,-1318 552.12,-1318"/>
<text text-anchor="middle" x="537.12" y="-1296.3" font-family="Helvetica,sans-Serif" font-size="11.00">Aspect</text>
</g>
<!-- Dignity -->
<g id="node4" class="node">
<title>Dignity</title>
<path fill="#ffe4b5" stroke="black" d="M552.62,-1372C552.62,-1372 521.62,-1372 521.62,-1372 515.62,-1372 509.62,-1366 509.62,-1360 509.62,-1360 509.62,-1348 509.62,-1348 509.62,-1342 515.62,-1336 521.62,-1336 521.62,-1336 552.62,-1336 552.62,-1336 558.62,-1336 564.62,-1342 564.62,-1348 564.62,-1348 564.62,-1360 564.62,-1360 564.62,-1366 558.62,-1372 552.62,-1372"/>
<text text-anchor="middle" x="537.12" y="-1350.3" font-family="Helvetica,sans-Serif" font-size="11.00">Dignity</text>
</g>
<!-- Sign -->
<g id="node5" class="node">
<title>Sign</title>
<path fill="#90ee90" stroke="black" d="M338.12,-1331C338.12,-1331 308.12,-1331 308.12,-1331 302.12,-1331 296.12,-1325 296.12,-1319 296.12,-1319 296.12,-1307 296.12,-1307 296.12,-1301 302.12,-1295 308.12,-1295 308.12,-1295 338.12,-1295 338.12,-1295 344.12,-1295 350.12,-1301 350.12,-1307 350.12,-1307 350.12,-1319 350.12,-1319 350.12,-1325 344.12,-1331 338.12,-1331"/>
<text text-anchor="middle" x="323.12" y="-1309.3" font-family="Helvetica,sans-Serif" font-size="11.00">Sign</text>
</g>
<!-- Sign&#45;&gt;Element -->
<g id="edge4" class="edge">
<title>Sign&#45;&gt;Element</title>
<path fill="none" stroke="#666666" d="M350.62,-1296.43C381.73,-1277.16 435.07,-1244.72 482.12,-1219 486.59,-1216.56 491.31,-1214.07 496.02,-1211.65"/>
<polygon fill="#666666" stroke="#666666" points="497.53,-1214.8 504.86,-1207.15 494.36,-1208.56 497.53,-1214.8"/>
<text text-anchor="middle" x="435.38" y="-1264.32" font-family="Helvetica,sans-Serif" font-size="9.00">element</text>
</g>
<!-- Sign&#45;&gt;Modality -->
<g id="edge5" class="edge">
<title>Sign&#45;&gt;Modality</title>
<path fill="none" stroke="#666666" d="M350.57,-1314.01C380.33,-1314.03 429.26,-1310.62 465.75,-1291 475.28,-1285.88 473.5,-1279.53 482.12,-1273 486.18,-1269.93 490.64,-1267.05 495.21,-1264.4"/>
<polygon fill="#666666" stroke="#666666" points="496.78,-1267.53 503.92,-1259.71 493.46,-1261.37 496.78,-1267.53"/>
<text text-anchor="middle" x="435.38" y="-1312.41" font-family="Helvetica,sans-Serif" font-size="9.00">modality</text>
</g>
<!-- Planet -->
<g id="node8" class="node">
<title>Planet</title>
<path fill="#ffb6c1" stroke="black" d="M552.12,-1457C552.12,-1457 522.12,-1457 522.12,-1457 516.12,-1457 510.12,-1451 510.12,-1445 510.12,-1445 510.12,-1433 510.12,-1433 510.12,-1427 516.12,-1421 522.12,-1421 522.12,-1421 552.12,-1421 552.12,-1421 558.12,-1421 564.12,-1427 564.12,-1433 564.12,-1433 564.12,-1445 564.12,-1445 564.12,-1451 558.12,-1457 552.12,-1457"/>
<text text-anchor="middle" x="537.12" y="-1435.3" font-family="Helvetica,sans-Serif" font-size="11.00">Planet</text>
</g>
<!-- Sign&#45;&gt;Planet -->
<g id="edge6" class="edge">
<title>Sign&#45;&gt;Planet</title>
<path fill="none" stroke="#666666" stroke-dasharray="5,2" d="M350.49,-1327.46C379.33,-1343.53 426.66,-1370.68 465.75,-1396.75 473.31,-1401.79 474.5,-1404.06 482.12,-1409 487.78,-1412.66 493.9,-1416.33 499.93,-1419.78"/>
<polygon fill="#666666" stroke="#666666" points="498.13,-1422.78 508.57,-1424.61 501.55,-1416.68 498.13,-1422.78"/>
<text text-anchor="middle" x="435.38" y="-1399.45" font-family="Helvetica,sans-Serif" font-size="9.00">ruler</text>
</g>
<!-- Rulership -->
<g id="node6" class="node">
<title>Rulership</title>
<path fill="#90ee90" stroke="black" d="M109.25,-1331C109.25,-1331 66.25,-1331 66.25,-1331 60.25,-1331 54.25,-1325 54.25,-1319 54.25,-1319 54.25,-1307 54.25,-1307 54.25,-1301 60.25,-1295 66.25,-1295 66.25,-1295 109.25,-1295 109.25,-1295 115.25,-1295 121.25,-1301 121.25,-1307 121.25,-1307 121.25,-1319 121.25,-1319 121.25,-1325 115.25,-1331 109.25,-1331"/>
<text text-anchor="middle" x="87.75" y="-1309.3" font-family="Helvetica,sans-Serif" font-size="11.00">Rulership</text>
</g>
<!-- Rulership&#45;&gt;Sign -->
<g id="edge8" class="edge">
<title>Rulership&#45;&gt;Sign</title>
<path fill="none" stroke="#666666" d="M121.69,-1313C164.6,-1313 239.43,-1313 284.52,-1313"/>
<polygon fill="#666666" stroke="#666666" points="284.33,-1316.5 294.33,-1313 284.33,-1309.5 284.33,-1316.5"/>
<text text-anchor="middle" x="209.38" y="-1315.7" font-family="Helvetica,sans-Serif" font-size="9.00">sign</text>
</g>
<!-- Rulership&#45;&gt;Planet -->
<g id="edge7" class="edge">
<title>Rulership&#45;&gt;Planet</title>
<path fill="none" stroke="#666666" d="M121.35,-1323.49C178.49,-1341.73 300.62,-1380.01 405,-1408 436.39,-1416.42 472.33,-1424.83 498.64,-1430.76"/>
<polygon fill="#666666" stroke="#666666" points="497.64,-1434.13 508.16,-1432.89 499.17,-1427.29 497.64,-1434.13"/>
<text text-anchor="middle" x="323.12" y="-1405.53" font-family="Helvetica,sans-Serif" font-size="9.00">planet</text>
</g>
<!-- Measure -->
<g id="node7" class="node">
<title>Measure</title>
<path fill="#b0c4de" stroke="black" d="M107.38,-1246C107.38,-1246 68.12,-1246 68.12,-1246 62.12,-1246 56.12,-1240 56.12,-1234 56.12,-1234 56.12,-1222 56.12,-1222 56.12,-1216 62.12,-1210 68.12,-1210 68.12,-1210 107.38,-1210 107.38,-1210 113.38,-1210 119.38,-1216 119.38,-1222 119.38,-1222 119.38,-1234 119.38,-1234 119.38,-1240 113.38,-1246 107.38,-1246"/>
<text text-anchor="middle" x="87.75" y="-1224.3" font-family="Helvetica,sans-Serif" font-size="11.00">Measure</text>
</g>
<!-- Measure&#45;&gt;Element -->
<g id="edge2" class="edge">
<title>Measure&#45;&gt;Element</title>
<path fill="none" stroke="#4169e1" d="M119.85,-1225.5C198.66,-1219.16 406.22,-1202.45 494.95,-1195.31"/>
<polygon fill="#4169e1" stroke="#4169e1" points="495.21,-1198.8 504.89,-1194.51 494.65,-1191.83 495.21,-1198.8"/>
<text text-anchor="middle" x="323.12" y="-1217.45" font-family="Helvetica,sans-Serif" font-size="9.00">element</text>
</g>
<!-- Measure&#45;&gt;Modality -->
<g id="edge3" class="edge">
<title>Measure&#45;&gt;Modality</title>
<path fill="none" stroke="#4169e1" d="M119.85,-1229.25C198.36,-1232.41 404.65,-1240.71 493.93,-1244.3"/>
<polygon fill="#4169e1" stroke="#4169e1" points="493.58,-1247.79 503.72,-1244.7 493.86,-1240.8 493.58,-1247.79"/>
<text text-anchor="middle" x="323.12" y="-1242.65" font-family="Helvetica,sans-Serif" font-size="9.00">modality</text>
</g>
<!-- Measure&#45;&gt;Sign -->
<g id="edge1" class="edge">
<title>Measure&#45;&gt;Sign</title>
<path fill="none" stroke="#4169e1" stroke-width="2" d="M119.74,-1239.29C162.47,-1254.85 239.35,-1282.85 285.07,-1299.5"/>
<polygon fill="#4169e1" stroke="#4169e1" stroke-width="2" points="282.26,-1302.21 292.86,-1302.34 284.66,-1295.63 282.26,-1302.21"/>
<text text-anchor="middle" x="209.38" y="-1285.78" font-family="Helvetica,sans-Serif" font-size="9.00">sign</text>
</g>
<!-- agent -->
<g id="node9" class="node">
<title>agent</title>
<path fill="#ffb6c1" stroke="black" d="M722.62,-1484C722.62,-1484 692.62,-1484 692.62,-1484 686.62,-1484 680.62,-1478 680.62,-1472 680.62,-1472 680.62,-1460 680.62,-1460 680.62,-1454 686.62,-1448 692.62,-1448 692.62,-1448 722.62,-1448 722.62,-1448 728.62,-1448 734.62,-1454 734.62,-1460 734.62,-1460 734.62,-1472 734.62,-1472 734.62,-1478 728.62,-1484 722.62,-1484"/>
<text text-anchor="middle" x="707.62" y="-1462.3" font-family="Helvetica,sans-Serif" font-size="11.00">agent</text>
</g>
<!-- agent_session -->
<g id="node10" class="node">
<title>agent_session</title>
<path fill="#ffb6c1" stroke="black" d="M572.12,-1511C572.12,-1511 502.12,-1511 502.12,-1511 496.12,-1511 490.12,-1505 490.12,-1499 490.12,-1499 490.12,-1487 490.12,-1487 490.12,-1481 496.12,-1475 502.12,-1475 502.12,-1475 572.12,-1475 572.12,-1475 578.12,-1475 584.12,-1481 584.12,-1487 584.12,-1487 584.12,-1499 584.12,-1499 584.12,-1505 578.12,-1511 572.12,-1511"/>
<text text-anchor="middle" x="537.12" y="-1489.3" font-family="Helvetica,sans-Serif" font-size="11.00">agent_session</text>
</g>
<!-- agent_session&#45;&gt;agent -->
<g id="edge28" class="edge">
<title>agent_session&#45;&gt;agent</title>
<path fill="none" stroke="#8b0000" stroke-dasharray="5,2" d="M584.61,-1485.55C611.19,-1481.29 644.08,-1476.02 669.02,-1472.03"/>
<polygon fill="#8b0000" stroke="#8b0000" points="669.39,-1475.51 678.71,-1470.47 668.28,-1468.6 669.39,-1475.51"/>
<text text-anchor="middle" x="631.75" y="-1483.82" font-family="Helvetica,sans-Serif" font-size="9.00">agent_id</text>
</g>
<!-- Enum -->
<g id="node11" class="node">
<title>Enum</title>
<path fill="#d3d3d3" stroke="black" d="M338.12,-52C338.12,-52 308.12,-52 308.12,-52 302.12,-52 296.12,-46 296.12,-40 296.12,-40 296.12,-28 296.12,-28 296.12,-22 302.12,-16 308.12,-16 308.12,-16 338.12,-16 338.12,-16 344.12,-16 350.12,-22 350.12,-28 350.12,-28 350.12,-40 350.12,-40 350.12,-46 344.12,-52 338.12,-52"/>
<text text-anchor="middle" x="323.12" y="-30.3" font-family="Helvetica,sans-Serif" font-size="11.00">Enum</text>
</g>
<!-- Phase -->
<g id="node12" class="node">
<title>Phase</title>
<path fill="#d3d3d3" stroke="black" d="M338.12,-106C338.12,-106 308.12,-106 308.12,-106 302.12,-106 296.12,-100 296.12,-94 296.12,-94 296.12,-82 296.12,-82 296.12,-76 302.12,-70 308.12,-70 308.12,-70 338.12,-70 338.12,-70 344.12,-70 350.12,-76 350.12,-82 350.12,-82 350.12,-94 350.12,-94 350.12,-100 344.12,-106 338.12,-106"/>
<text text-anchor="middle" x="323.12" y="-84.3" font-family="Helvetica,sans-Serif" font-size="11.00">Phase</text>
</g>
<!-- CommitType -->
<g id="node13" class="node">
<title>CommitType</title>
<path fill="#d3d3d3" stroke="black" d="M353.25,-160C353.25,-160 293,-160 293,-160 287,-160 281,-154 281,-148 281,-148 281,-136 281,-136 281,-130 287,-124 293,-124 293,-124 353.25,-124 353.25,-124 359.25,-124 365.25,-130 365.25,-136 365.25,-136 365.25,-148 365.25,-148 365.25,-154 359.25,-160 353.25,-160"/>
<text text-anchor="middle" x="323.12" y="-138.3" font-family="Helvetica,sans-Serif" font-size="11.00">CommitType</text>
</g>
<!-- Action -->
<g id="node14" class="node">
<title>Action</title>
<path fill="#d3d3d3" stroke="black" d="M338.12,-214C338.12,-214 308.12,-214 308.12,-214 302.12,-214 296.12,-208 296.12,-202 296.12,-202 296.12,-190 296.12,-190 296.12,-184 302.12,-178 308.12,-178 308.12,-178 338.12,-178 338.12,-178 344.12,-178 350.12,-184 350.12,-190 350.12,-190 350.12,-202 350.12,-202 350.12,-208 344.12,-214 338.12,-214"/>
<text text-anchor="middle" x="323.12" y="-192.3" font-family="Helvetica,sans-Serif" font-size="11.00">Action</text>
</g>
<!-- Verdict -->
<g id="node15" class="node">
<title>Verdict</title>
<path fill="#d3d3d3" stroke="black" d="M338.25,-268C338.25,-268 308,-268 308,-268 302,-268 296,-262 296,-256 296,-256 296,-244 296,-244 296,-238 302,-232 308,-232 308,-232 338.25,-232 338.25,-232 344.25,-232 350.25,-238 350.25,-244 350.25,-244 350.25,-256 350.25,-256 350.25,-262 344.25,-268 338.25,-268"/>
<text text-anchor="middle" x="323.12" y="-246.3" font-family="Helvetica,sans-Serif" font-size="11.00">Verdict</text>
</g>
<!-- world_schema -->
<g id="node16" class="node">
<title>world_schema</title>
<path fill="#d3d3d3" stroke="black" d="M358.12,-322C358.12,-322 288.12,-322 288.12,-322 282.12,-322 276.12,-316 276.12,-310 276.12,-310 276.12,-298 276.12,-298 276.12,-292 282.12,-286 288.12,-286 288.12,-286 358.12,-286 358.12,-286 364.12,-286 370.12,-292 370.12,-298 370.12,-298 370.12,-310 370.12,-310 370.12,-316 364.12,-322 358.12,-322"/>
<text text-anchor="middle" x="323.12" y="-300.3" font-family="Helvetica,sans-Serif" font-size="11.00">world_schema</text>
</g>
<!-- world_commit -->
<g id="node17" class="node">
<title>world_commit</title>
<path fill="#d3d3d3" stroke="black" d="M571.38,-398C571.38,-398 502.88,-398 502.88,-398 496.88,-398 490.88,-392 490.88,-386 490.88,-386 490.88,-374 490.88,-374 490.88,-368 496.88,-362 502.88,-362 502.88,-362 571.38,-362 571.38,-362 577.38,-362 583.38,-368 583.38,-374 583.38,-374 583.38,-386 583.38,-386 583.38,-392 577.38,-398 571.38,-398"/>
<text text-anchor="middle" x="537.12" y="-376.3" font-family="Helvetica,sans-Serif" font-size="11.00">world_commit</text>
</g>
<!-- world_manifest -->
<g id="node18" class="node">
<title>world_manifest</title>
<path fill="#d3d3d3" stroke="black" d="M360.75,-376C360.75,-376 285.5,-376 285.5,-376 279.5,-376 273.5,-370 273.5,-364 273.5,-364 273.5,-352 273.5,-352 273.5,-346 279.5,-340 285.5,-340 285.5,-340 360.75,-340 360.75,-340 366.75,-340 372.75,-346 372.75,-352 372.75,-352 372.75,-364 372.75,-364 372.75,-370 366.75,-376 360.75,-376"/>
<text text-anchor="middle" x="323.12" y="-354.3" font-family="Helvetica,sans-Serif" font-size="11.00">world_manifest</text>
</g>
<!-- world_manifest&#45;&gt;world_commit -->
<g id="edge31" class="edge">
<title>world_manifest&#45;&gt;world_commit</title>
<path fill="none" stroke="#555555" stroke-dasharray="5,2" d="M373.03,-363.07C404.75,-366.37 446.2,-370.67 479.37,-374.11"/>
<polygon fill="#555555" stroke="#555555" points="478.91,-377.58 489.22,-375.13 479.64,-370.62 478.91,-377.58"/>
<text text-anchor="middle" x="435.38" y="-374.96" font-family="Helvetica,sans-Serif" font-size="9.00">commit_hash</text>
</g>
<!-- world_delta -->
<g id="node19" class="node">
<title>world_delta</title>
<path fill="#d3d3d3" stroke="black" d="M350.62,-430C350.62,-430 295.62,-430 295.62,-430 289.62,-430 283.62,-424 283.62,-418 283.62,-418 283.62,-406 283.62,-406 283.62,-400 289.62,-394 295.62,-394 295.62,-394 350.62,-394 350.62,-394 356.62,-394 362.62,-400 362.62,-406 362.62,-406 362.62,-418 362.62,-418 362.62,-424 356.62,-430 350.62,-430"/>
<text text-anchor="middle" x="323.12" y="-408.3" font-family="Helvetica,sans-Serif" font-size="11.00">world_delta</text>
</g>
<!-- world_delta&#45;&gt;world_commit -->
<g id="edge30" class="edge">
<title>world_delta&#45;&gt;world_commit</title>
<path fill="none" stroke="#555555" stroke-dasharray="5,2" d="M363.01,-406.13C395.62,-401.21 442.62,-394.11 479.42,-388.56"/>
<polygon fill="#555555" stroke="#555555" points="479.62,-392.07 488.99,-387.11 478.58,-385.15 479.62,-392.07"/>
<text text-anchor="middle" x="435.38" y="-401.57" font-family="Helvetica,sans-Serif" font-size="9.00">commit_hash</text>
</g>
<!-- world_snapshot -->
<g id="node20" class="node">
<title>world_snapshot</title>
<path fill="#d3d3d3" stroke="black" d="M361.88,-484C361.88,-484 284.38,-484 284.38,-484 278.38,-484 272.38,-478 272.38,-472 272.38,-472 272.38,-460 272.38,-460 272.38,-454 278.38,-448 284.38,-448 284.38,-448 361.88,-448 361.88,-448 367.88,-448 373.88,-454 373.88,-460 373.88,-460 373.88,-472 373.88,-472 373.88,-478 367.88,-484 361.88,-484"/>
<text text-anchor="middle" x="323.12" y="-462.3" font-family="Helvetica,sans-Serif" font-size="11.00">world_snapshot</text>
</g>
<!-- thought -->
<g id="node21" class="node">
<title>thought</title>
<path fill="#dda0dd" stroke="black" d="M340.5,-904C340.5,-904 305.75,-904 305.75,-904 299.75,-904 293.75,-898 293.75,-892 293.75,-892 293.75,-880 293.75,-880 293.75,-874 299.75,-868 305.75,-868 305.75,-868 340.5,-868 340.5,-868 346.5,-868 352.5,-874 352.5,-880 352.5,-880 352.5,-892 352.5,-892 352.5,-898 346.5,-904 340.5,-904"/>
<text text-anchor="middle" x="323.12" y="-882.3" font-family="Helvetica,sans-Serif" font-size="11.00">thought</text>
</g>
<!-- thought_link -->
<g id="node22" class="node">
<title>thought_link</title>
<path fill="#dda0dd" stroke="black" d="M117.12,-924C117.12,-924 58.38,-924 58.38,-924 52.38,-924 46.38,-918 46.38,-912 46.38,-912 46.38,-900 46.38,-900 46.38,-894 52.38,-888 58.38,-888 58.38,-888 117.12,-888 117.12,-888 123.12,-888 129.12,-894 129.12,-900 129.12,-900 129.12,-912 129.12,-912 129.12,-918 123.12,-924 117.12,-924"/>
<text text-anchor="middle" x="87.75" y="-902.3" font-family="Helvetica,sans-Serif" font-size="11.00">thought_link</text>
</g>
<!-- thought_link&#45;&gt;thought -->
<g id="edge11" class="edge">
<title>thought_link&#45;&gt;thought</title>
<path fill="none" stroke="#666666" d="M129.55,-895.29C144.52,-891.85 161.67,-888.49 177.5,-886.75 212.71,-882.88 253.03,-883.05 282.14,-883.98"/>
<polygon fill="#666666" stroke="#666666" points="281.85,-887.47 291.97,-884.34 282.11,-880.48 281.85,-887.47"/>
<text text-anchor="middle" x="209.38" y="-889.45" font-family="Helvetica,sans-Serif" font-size="9.00">from_id</text>
</g>
<!-- thought_link&#45;&gt;thought -->
<g id="edge12" class="edge">
<title>thought_link&#45;&gt;thought</title>
<path fill="none" stroke="#666666" d="M129.61,-904.91C160.36,-903.83 203.53,-901.78 241.25,-898 254.69,-896.65 269.31,-894.65 282.37,-892.67"/>
<polygon fill="#666666" stroke="#666666" points="282.55,-896.18 291.89,-891.18 281.47,-889.26 282.55,-896.18"/>
<text text-anchor="middle" x="209.38" y="-905.41" font-family="Helvetica,sans-Serif" font-size="9.00">to_id</text>
</g>
<!-- thought_tag -->
<g id="node23" class="node">
<title>thought_tag</title>
<path fill="#dda0dd" stroke="black" d="M116.75,-870C116.75,-870 58.75,-870 58.75,-870 52.75,-870 46.75,-864 46.75,-858 46.75,-858 46.75,-846 46.75,-846 46.75,-840 52.75,-834 58.75,-834 58.75,-834 116.75,-834 116.75,-834 122.75,-834 128.75,-840 128.75,-846 128.75,-846 128.75,-858 128.75,-858 128.75,-864 122.75,-870 116.75,-870"/>
<text text-anchor="middle" x="87.75" y="-848.3" font-family="Helvetica,sans-Serif" font-size="11.00">thought_tag</text>
</g>
<!-- thought_tag&#45;&gt;thought -->
<g id="edge29" class="edge">
<title>thought_tag&#45;&gt;thought</title>
<path fill="none" stroke="#800080" stroke-dasharray="5,2" d="M129.06,-854.85C159.9,-857.34 203.43,-861.55 241.25,-867.75 254.76,-869.96 269.4,-873.05 282.46,-876.06"/>
<polygon fill="#800080" stroke="#800080" points="281.46,-879.42 291.99,-878.31 283.07,-872.61 281.46,-879.42"/>
<text text-anchor="middle" x="209.38" y="-870.45" font-family="Helvetica,sans-Serif" font-size="9.00">thought_id</text>
</g>
<!-- principle -->
<g id="node24" class="node">
<title>principle</title>
<path fill="#dda0dd" stroke="black" d="M107,-762C107,-762 68.5,-762 68.5,-762 62.5,-762 56.5,-756 56.5,-750 56.5,-750 56.5,-738 56.5,-738 56.5,-732 62.5,-726 68.5,-726 68.5,-726 107,-726 107,-726 113,-726 119,-732 119,-738 119,-738 119,-750 119,-750 119,-756 113,-762 107,-762"/>
<text text-anchor="middle" x="87.75" y="-740.3" font-family="Helvetica,sans-Serif" font-size="11.00">principle</text>
</g>
<!-- guideline -->
<g id="node25" class="node">
<title>guideline</title>
<path fill="#dda0dd" stroke="black" d="M108.5,-1032C108.5,-1032 67,-1032 67,-1032 61,-1032 55,-1026 55,-1020 55,-1020 55,-1008 55,-1008 55,-1002 61,-996 67,-996 67,-996 108.5,-996 108.5,-996 114.5,-996 120.5,-1002 120.5,-1008 120.5,-1008 120.5,-1020 120.5,-1020 120.5,-1026 114.5,-1032 108.5,-1032"/>
<text text-anchor="middle" x="87.75" y="-1010.3" font-family="Helvetica,sans-Serif" font-size="11.00">guideline</text>
</g>
<!-- guideline&#45;&gt;Sign -->
<g id="edge17" class="edge">
<title>guideline&#45;&gt;Sign</title>
<path fill="none" stroke="#800080" stroke-dasharray="5,2" d="M120.69,-1020.29C134.07,-1024.3 148.93,-1030.75 159.5,-1041 197.52,-1077.88 218.5,-1219.36 251.25,-1261 260.78,-1273.12 273.82,-1283.77 286.12,-1292.22"/>
<polygon fill="#800080" stroke="#800080" points="284.19,-1295.14 294.48,-1297.69 288.03,-1289.28 284.19,-1295.14"/>
<text text-anchor="middle" x="209.38" y="-1244.75" font-family="Helvetica,sans-Serif" font-size="9.00">sign</text>
</g>
<!-- repo -->
<g id="node26" class="node">
<title>repo</title>
<path fill="#dda0dd" stroke="black" d="M338.12,-978C338.12,-978 308.12,-978 308.12,-978 302.12,-978 296.12,-972 296.12,-966 296.12,-966 296.12,-954 296.12,-954 296.12,-948 302.12,-942 308.12,-942 308.12,-942 338.12,-942 338.12,-942 344.12,-942 350.12,-948 350.12,-954 350.12,-954 350.12,-966 350.12,-966 350.12,-972 344.12,-978 338.12,-978"/>
<text text-anchor="middle" x="323.12" y="-956.3" font-family="Helvetica,sans-Serif" font-size="11.00">repo</text>
</g>
<!-- repo_state -->
<g id="node27" class="node">
<title>repo_state</title>
<path fill="#dda0dd" stroke="black" d="M113,-978C113,-978 62.5,-978 62.5,-978 56.5,-978 50.5,-972 50.5,-966 50.5,-966 50.5,-954 50.5,-954 50.5,-948 56.5,-942 62.5,-942 62.5,-942 113,-942 113,-942 119,-942 125,-948 125,-954 125,-954 125,-966 125,-966 125,-972 119,-978 113,-978"/>
<text text-anchor="middle" x="87.75" y="-956.3" font-family="Helvetica,sans-Serif" font-size="11.00">repo_state</text>
</g>
<!-- repo_state&#45;&gt;repo -->
<g id="edge10" class="edge">
<title>repo_state&#45;&gt;repo</title>
<path fill="none" stroke="#666666" d="M125.47,-960C168.86,-960 240.67,-960 284.46,-960"/>
<polygon fill="#666666" stroke="#666666" points="284.24,-963.5 294.24,-960 284.24,-956.5 284.24,-963.5"/>
<text text-anchor="middle" x="209.38" y="-962.7" font-family="Helvetica,sans-Serif" font-size="9.00">name</text>
</g>
<!-- relation_meta -->
<g id="node28" class="node">
<title>relation_meta</title>
<path fill="#dda0dd" stroke="black" d="M121.62,-654C121.62,-654 53.88,-654 53.88,-654 47.88,-654 41.88,-648 41.88,-642 41.88,-642 41.88,-630 41.88,-630 41.88,-624 47.88,-618 53.88,-618 53.88,-618 121.62,-618 121.62,-618 127.62,-618 133.62,-624 133.62,-630 133.62,-630 133.62,-642 133.62,-642 133.62,-648 127.62,-654 121.62,-654"/>
<text text-anchor="middle" x="87.75" y="-632.3" font-family="Helvetica,sans-Serif" font-size="11.00">relation_meta</text>
</g>
<!-- relation_meta&#45;&gt;world_schema -->
<g id="edge13" class="edge">
<title>relation_meta&#45;&gt;world_schema</title>
<path fill="none" stroke="#666666" d="M93.55,-617.69C108.17,-565.46 156.97,-414.13 251.25,-331 255.58,-327.18 260.51,-323.88 265.71,-321.02"/>
<polygon fill="#666666" stroke="#666666" points="267.09,-324.24 274.57,-316.74 264.05,-317.94 267.09,-324.24"/>
<text text-anchor="middle" x="209.38" y="-420.22" font-family="Helvetica,sans-Serif" font-size="9.00">relation_name</text>
</g>
<!-- relation_morphism -->
<g id="node29" class="node">
<title>relation_morphism</title>
<path fill="#dda0dd" stroke="black" d="M134.75,-708C134.75,-708 40.75,-708 40.75,-708 34.75,-708 28.75,-702 28.75,-696 28.75,-696 28.75,-684 28.75,-684 28.75,-678 34.75,-672 40.75,-672 40.75,-672 134.75,-672 134.75,-672 140.75,-672 146.75,-678 146.75,-684 146.75,-684 146.75,-696 146.75,-696 146.75,-702 140.75,-708 134.75,-708"/>
<text text-anchor="middle" x="87.75" y="-686.3" font-family="Helvetica,sans-Serif" font-size="11.00">relation_morphism</text>
</g>
<!-- relation_morphism&#45;&gt;world_schema -->
<g id="edge14" class="edge">
<title>relation_morphism&#45;&gt;world_schema</title>
<path fill="none" stroke="#666666" d="M143.78,-671.53C179.39,-656.22 222.49,-630.49 241.25,-591 253.66,-564.89 234.39,-354.49 251.25,-331 255.09,-325.66 260.13,-321.37 265.75,-317.93"/>
<polygon fill="#666666" stroke="#666666" points="266.98,-321.23 274.32,-313.59 263.81,-314.99 266.98,-321.23"/>
<text text-anchor="middle" x="209.38" y="-655.24" font-family="Helvetica,sans-Serif" font-size="9.00">source</text>
</g>
<!-- relation_morphism&#45;&gt;world_schema -->
<g id="edge15" class="edge">
<title>relation_morphism&#45;&gt;world_schema</title>
<path fill="none" stroke="#666666" d="M147.25,-673.54C151.82,-670.59 156.01,-667.11 159.5,-663 185.15,-632.84 165.36,-613.44 177.5,-575.75 198.81,-509.62 223.46,-500.17 241.25,-433 247.08,-410.98 237.43,-349.1 251.25,-331 255.1,-325.96 260,-321.87 265.43,-318.53"/>
<polygon fill="#666666" stroke="#666666" points="266.99,-321.67 274.31,-314.01 263.81,-315.43 266.99,-321.67"/>
<text text-anchor="middle" x="209.38" y="-578.45" font-family="Helvetica,sans-Serif" font-size="9.00">target</text>
</g>
<!-- relation_tradition -->
<g id="node30" class="node">
<title>relation_tradition</title>
<path fill="#dda0dd" stroke="black" d="M130.62,-816C130.62,-816 44.88,-816 44.88,-816 38.88,-816 32.88,-810 32.88,-804 32.88,-804 32.88,-792 32.88,-792 32.88,-786 38.88,-780 44.88,-780 44.88,-780 130.62,-780 130.62,-780 136.62,-780 142.62,-786 142.62,-792 142.62,-792 142.62,-804 142.62,-804 142.62,-810 136.62,-816 130.62,-816"/>
<text text-anchor="middle" x="87.75" y="-794.3" font-family="Helvetica,sans-Serif" font-size="11.00">relation_tradition</text>
</g>
<!-- relation_tradition&#45;&gt;world_schema -->
<g id="edge16" class="edge">
<title>relation_tradition&#45;&gt;world_schema</title>
<path fill="none" stroke="#666666" d="M142.89,-780.88C148.74,-778.01 154.41,-774.73 159.5,-771 206.65,-736.46 221.19,-722.9 241.25,-668 254.1,-632.81 229.54,-361.53 251.25,-331 255.11,-325.57 260.22,-321.23 265.92,-317.76"/>
<polygon fill="#666666" stroke="#666666" points="267.26,-321.01 274.63,-313.4 264.12,-314.75 267.26,-321.01"/>
<text text-anchor="middle" x="209.38" y="-758.48" font-family="Helvetica,sans-Serif" font-size="9.00">relation_name</text>
</g>
<!-- samskrta -->
<g id="node31" class="node">
<title>samskrta</title>
<path fill="#dda0dd" stroke="black" d="M109.25,-1086C109.25,-1086 66.25,-1086 66.25,-1086 60.25,-1086 54.25,-1080 54.25,-1074 54.25,-1074 54.25,-1062 54.25,-1062 54.25,-1056 60.25,-1050 66.25,-1050 66.25,-1050 109.25,-1050 109.25,-1050 115.25,-1050 121.25,-1056 121.25,-1062 121.25,-1062 121.25,-1074 121.25,-1074 121.25,-1080 115.25,-1086 109.25,-1086"/>
<text text-anchor="middle" x="87.75" y="-1064.3" font-family="Helvetica,sans-Serif" font-size="11.00">samskrta</text>
</g>
<!-- latina -->
<g id="node32" class="node">
<title>latina</title>
<path fill="#dda0dd" stroke="black" d="M102.75,-1140C102.75,-1140 72.75,-1140 72.75,-1140 66.75,-1140 60.75,-1134 60.75,-1128 60.75,-1128 60.75,-1116 60.75,-1116 60.75,-1110 66.75,-1104 72.75,-1104 72.75,-1104 102.75,-1104 102.75,-1104 108.75,-1104 114.75,-1110 114.75,-1116 114.75,-1116 114.75,-1128 114.75,-1128 114.75,-1134 108.75,-1140 102.75,-1140"/>
<text text-anchor="middle" x="87.75" y="-1118.3" font-family="Helvetica,sans-Serif" font-size="11.00">latina</text>
</g>
<!-- Tool -->
<g id="node33" class="node">
<title>Tool</title>
<path fill="#98fb98" stroke="black" d="M552.12,-1637C552.12,-1637 522.12,-1637 522.12,-1637 516.12,-1637 510.12,-1631 510.12,-1625 510.12,-1625 510.12,-1613 510.12,-1613 510.12,-1607 516.12,-1601 522.12,-1601 522.12,-1601 552.12,-1601 552.12,-1601 558.12,-1601 564.12,-1607 564.12,-1613 564.12,-1613 564.12,-1625 564.12,-1625 564.12,-1631 558.12,-1637 552.12,-1637"/>
<text text-anchor="middle" x="537.12" y="-1615.3" font-family="Helvetica,sans-Serif" font-size="11.00">Tool</text>
</g>
<!-- CommandStatus -->
<g id="node34" class="node">
<title>CommandStatus</title>
<path fill="#98fb98" stroke="black" d="M578.5,-1691C578.5,-1691 495.75,-1691 495.75,-1691 489.75,-1691 483.75,-1685 483.75,-1679 483.75,-1679 483.75,-1667 483.75,-1667 483.75,-1661 489.75,-1655 495.75,-1655 495.75,-1655 578.5,-1655 578.5,-1655 584.5,-1655 590.5,-1661 590.5,-1667 590.5,-1667 590.5,-1679 590.5,-1679 590.5,-1685 584.5,-1691 578.5,-1691"/>
<text text-anchor="middle" x="537.12" y="-1669.3" font-family="Helvetica,sans-Serif" font-size="11.00">CommandStatus</text>
</g>
<!-- FlagConstraint -->
<g id="node35" class="node">
<title>FlagConstraint</title>
<path fill="#98fb98" stroke="black" d="M358.88,-1596C358.88,-1596 287.38,-1596 287.38,-1596 281.38,-1596 275.38,-1590 275.38,-1584 275.38,-1584 275.38,-1572 275.38,-1572 275.38,-1566 281.38,-1560 287.38,-1560 287.38,-1560 358.88,-1560 358.88,-1560 364.88,-1560 370.88,-1566 370.88,-1572 370.88,-1572 370.88,-1584 370.88,-1584 370.88,-1590 364.88,-1596 358.88,-1596"/>
<text text-anchor="middle" x="323.12" y="-1574.3" font-family="Helvetica,sans-Serif" font-size="11.00">FlagConstraint</text>
</g>
<!-- sys_command -->
<g id="node36" class="node">
<title>sys_command</title>
<path fill="#98fb98" stroke="black" d="M358.12,-1664C358.12,-1664 288.12,-1664 288.12,-1664 282.12,-1664 276.12,-1658 276.12,-1652 276.12,-1652 276.12,-1640 276.12,-1640 276.12,-1634 282.12,-1628 288.12,-1628 288.12,-1628 358.12,-1628 358.12,-1628 364.12,-1628 370.12,-1634 370.12,-1640 370.12,-1640 370.12,-1652 370.12,-1652 370.12,-1658 364.12,-1664 358.12,-1664"/>
<text text-anchor="middle" x="323.12" y="-1642.3" font-family="Helvetica,sans-Serif" font-size="11.00">sys_command</text>
</g>
<!-- sys_command&#45;&gt;Tool -->
<g id="edge21" class="edge">
<title>sys_command&#45;&gt;Tool</title>
<path fill="none" stroke="#006400" stroke-dasharray="5,2" d="M370.29,-1639.43C381.64,-1637.85 393.75,-1636.21 405,-1634.75 436.45,-1630.67 472.19,-1626.4 498.41,-1623.34"/>
<polygon fill="#006400" stroke="#006400" points="498.7,-1626.83 508.23,-1622.2 497.89,-1619.88 498.7,-1626.83"/>
<text text-anchor="middle" x="435.38" y="-1637.45" font-family="Helvetica,sans-Serif" font-size="9.00">tool</text>
</g>
<!-- sys_command&#45;&gt;CommandStatus -->
<g id="edge22" class="edge">
<title>sys_command&#45;&gt;CommandStatus</title>
<path fill="none" stroke="#006400" stroke-dasharray="5,2" d="M370.39,-1651.89C400.25,-1655.7 439.5,-1660.69 472.31,-1664.87"/>
<polygon fill="#006400" stroke="#006400" points="471.76,-1668.33 482.12,-1666.12 472.64,-1661.39 471.76,-1668.33"/>
<text text-anchor="middle" x="435.38" y="-1666.2" font-family="Helvetica,sans-Serif" font-size="9.00">status</text>
</g>
<!-- sys_command_flag -->
<g id="node37" class="node">
<title>sys_command_flag</title>
<path fill="#98fb98" stroke="black" d="M135.5,-1596C135.5,-1596 40,-1596 40,-1596 34,-1596 28,-1590 28,-1584 28,-1584 28,-1572 28,-1572 28,-1566 34,-1560 40,-1560 40,-1560 135.5,-1560 135.5,-1560 141.5,-1560 147.5,-1566 147.5,-1572 147.5,-1572 147.5,-1584 147.5,-1584 147.5,-1590 141.5,-1596 135.5,-1596"/>
<text text-anchor="middle" x="87.75" y="-1574.3" font-family="Helvetica,sans-Serif" font-size="11.00">sys_command_flag</text>
</g>
<!-- sys_command_flag&#45;&gt;FlagConstraint -->
<g id="edge23" class="edge">
<title>sys_command_flag&#45;&gt;FlagConstraint</title>
<path fill="none" stroke="#006400" stroke-dasharray="5,2" d="M147.94,-1578C183.52,-1578 228.61,-1578 264,-1578"/>
<polygon fill="#006400" stroke="#006400" points="263.61,-1581.5 273.61,-1578 263.61,-1574.5 263.61,-1581.5"/>
<text text-anchor="middle" x="209.38" y="-1580.7" font-family="Helvetica,sans-Serif" font-size="9.00">constraint</text>
</g>
<!-- sys_command_flag&#45;&gt;sys_command -->
<g id="edge26" class="edge">
<title>sys_command_flag&#45;&gt;sys_command</title>
<path fill="none" stroke="#006400" stroke-dasharray="5,2" d="M147.82,-1594.77C176.11,-1602.85 210.46,-1612.72 241.25,-1621.75 248.99,-1624.02 257.13,-1626.43 265.15,-1628.82"/>
<polygon fill="#006400" stroke="#006400" points="263.93,-1632.11 274.51,-1631.62 265.93,-1625.4 263.93,-1632.11"/>
<text text-anchor="middle" x="209.38" y="-1624.45" font-family="Helvetica,sans-Serif" font-size="9.00">(tool,sub)</text>
</g>
<!-- sys_command_alt -->
<g id="node38" class="node">
<title>sys_command_alt</title>
<path fill="#98fb98" stroke="black" d="M132.5,-1650C132.5,-1650 43,-1650 43,-1650 37,-1650 31,-1644 31,-1638 31,-1638 31,-1626 31,-1626 31,-1620 37,-1614 43,-1614 43,-1614 132.5,-1614 132.5,-1614 138.5,-1614 144.5,-1620 144.5,-1626 144.5,-1626 144.5,-1638 144.5,-1638 144.5,-1644 138.5,-1650 132.5,-1650"/>
<text text-anchor="middle" x="87.75" y="-1628.3" font-family="Helvetica,sans-Serif" font-size="11.00">sys_command_alt</text>
</g>
<!-- sys_command_alt&#45;&gt;sys_command -->
<g id="edge24" class="edge">
<title>sys_command_alt&#45;&gt;sys_command</title>
<path fill="none" stroke="#006400" stroke-dasharray="5,2" d="M144.95,-1635.37C181.09,-1637.54 227.94,-1640.35 264.39,-1642.54"/>
<polygon fill="#006400" stroke="#006400" points="264.12,-1646.03 274.32,-1643.13 264.54,-1639.04 264.12,-1646.03"/>
<text text-anchor="middle" x="209.38" y="-1643.77" font-family="Helvetica,sans-Serif" font-size="9.00">(tool,sub)</text>
</g>
<!-- sys_command_usage -->
<g id="node39" class="node">
<title>sys_command_usage</title>
<path fill="#98fb98" stroke="black" d="M141.88,-1704C141.88,-1704 33.62,-1704 33.62,-1704 27.62,-1704 21.62,-1698 21.62,-1692 21.62,-1692 21.62,-1680 21.62,-1680 21.62,-1674 27.62,-1668 33.62,-1668 33.62,-1668 141.88,-1668 141.88,-1668 147.88,-1668 153.88,-1674 153.88,-1680 153.88,-1680 153.88,-1692 153.88,-1692 153.88,-1698 147.88,-1704 141.88,-1704"/>
<text text-anchor="middle" x="87.75" y="-1682.3" font-family="Helvetica,sans-Serif" font-size="11.00">sys_command_usage</text>
</g>
<!-- sys_command_usage&#45;&gt;sys_command -->
<g id="edge25" class="edge">
<title>sys_command_usage&#45;&gt;sys_command</title>
<path fill="none" stroke="#006400" stroke-dasharray="5,2" d="M154.07,-1674.8C188.84,-1668.85 231.21,-1661.58 264.71,-1655.84"/>
<polygon fill="#006400" stroke="#006400" points="264.95,-1659.35 274.21,-1654.21 263.77,-1652.45 264.95,-1659.35"/>
<text text-anchor="middle" x="209.38" y="-1673.46" font-family="Helvetica,sans-Serif" font-size="9.00">(tool,sub)</text>
</g>
<!-- sys_workflow -->
<g id="node40" class="node">
<title>sys_workflow</title>
<path fill="#98fb98" stroke="black" d="M120.12,-1758C120.12,-1758 55.38,-1758 55.38,-1758 49.38,-1758 43.38,-1752 43.38,-1746 43.38,-1746 43.38,-1734 43.38,-1734 43.38,-1728 49.38,-1722 55.38,-1722 55.38,-1722 120.12,-1722 120.12,-1722 126.12,-1722 132.12,-1728 132.12,-1734 132.12,-1734 132.12,-1746 132.12,-1746 132.12,-1752 126.12,-1758 120.12,-1758"/>
<text text-anchor="middle" x="87.75" y="-1736.3" font-family="Helvetica,sans-Serif" font-size="11.00">sys_workflow</text>
</g>
<!-- sys_workflow_meta -->
<g id="node41" class="node">
<title>sys_workflow_meta</title>
<path fill="#98fb98" stroke="black" d="M372.38,-1758C372.38,-1758 273.88,-1758 273.88,-1758 267.88,-1758 261.88,-1752 261.88,-1746 261.88,-1746 261.88,-1734 261.88,-1734 261.88,-1728 267.88,-1722 273.88,-1722 273.88,-1722 372.38,-1722 372.38,-1722 378.38,-1722 384.38,-1728 384.38,-1734 384.38,-1734 384.38,-1746 384.38,-1746 384.38,-1752 378.38,-1758 372.38,-1758"/>
<text text-anchor="middle" x="323.12" y="-1736.3" font-family="Helvetica,sans-Serif" font-size="11.00">sys_workflow_meta</text>
</g>
<!-- sys_workflow&#45;&gt;sys_workflow_meta -->
<g id="edge27" class="edge">
<title>sys_workflow&#45;&gt;sys_workflow_meta</title>
<path fill="none" stroke="#006400" stroke-dasharray="5,2" d="M132.37,-1740C165.51,-1740 211.81,-1740 250.38,-1740"/>
<polygon fill="#006400" stroke="#006400" points="250.04,-1743.5 260.04,-1740 250.04,-1736.5 250.04,-1743.5"/>
<text text-anchor="middle" x="209.38" y="-1742.7" font-family="Helvetica,sans-Serif" font-size="9.00">workflow</text>
</g>
<!-- DbAccess -->
<g id="node42" class="node">
<title>DbAccess</title>
<path fill="#ffdab9" stroke="black" d="M730.25,-569C730.25,-569 685,-569 685,-569 679,-569 673,-563 673,-557 673,-557 673,-545 673,-545 673,-539 679,-533 685,-533 685,-533 730.25,-533 730.25,-533 736.25,-533 742.25,-539 742.25,-545 742.25,-545 742.25,-557 742.25,-557 742.25,-563 736.25,-569 730.25,-569"/>
<text text-anchor="middle" x="707.62" y="-547.3" font-family="Helvetica,sans-Serif" font-size="11.00">DbAccess</text>
</g>
<!-- sandbox -->
<g id="node43" class="node">
<title>sandbox</title>
<path fill="#ffdab9" stroke="black" d="M556.38,-569C556.38,-569 517.88,-569 517.88,-569 511.88,-569 505.88,-563 505.88,-557 505.88,-557 505.88,-545 505.88,-545 505.88,-539 511.88,-533 517.88,-533 517.88,-533 556.38,-533 556.38,-533 562.38,-533 568.38,-539 568.38,-545 568.38,-545 568.38,-557 568.38,-557 568.38,-563 562.38,-569 556.38,-569"/>
<text text-anchor="middle" x="537.12" y="-547.3" font-family="Helvetica,sans-Serif" font-size="11.00">sandbox</text>
</g>
<!-- sandbox&#45;&gt;agent -->
<g id="edge18" class="edge">
<title>sandbox&#45;&gt;agent</title>
<path fill="none" stroke="#ff8c00" stroke-dasharray="5,2" d="M541.49,-569.28C562.45,-683.08 675.02,-1294.37 701.19,-1436.47"/>
<polygon fill="#ff8c00" stroke="#ff8c00" points="697.72,-1436.99 702.98,-1446.19 704.61,-1435.72 697.72,-1436.99"/>
<text text-anchor="middle" x="631.75" y="-1172.74" font-family="Helvetica,sans-Serif" font-size="9.00">agent_id</text>
</g>
<!-- sandbox&#45;&gt;DbAccess -->
<g id="edge19" class="edge">
<title>sandbox&#45;&gt;DbAccess</title>
<path fill="none" stroke="#ff8c00" stroke-dasharray="5,2" d="M568.64,-551C594.51,-551 631.98,-551 661.35,-551"/>
<polygon fill="#ff8c00" stroke="#ff8c00" points="661.06,-554.5 671.06,-551 661.06,-547.5 661.06,-554.5"/>
<text text-anchor="middle" x="631.75" y="-553.7" font-family="Helvetica,sans-Serif" font-size="9.00">db_access</text>
</g>
<!-- sandbox_permission -->
<g id="node44" class="node">
<title>sandbox_permission</title>
<path fill="#ffdab9" stroke="black" d="M375,-569C375,-569 271.25,-569 271.25,-569 265.25,-569 259.25,-563 259.25,-557 259.25,-557 259.25,-545 259.25,-545 259.25,-539 265.25,-533 271.25,-533 271.25,-533 375,-533 375,-533 381,-533 387,-539 387,-545 387,-545 387,-557 387,-557 387,-563 381,-569 375,-569"/>
<text text-anchor="middle" x="323.12" y="-547.3" font-family="Helvetica,sans-Serif" font-size="11.00">sandbox_permission</text>
</g>
<!-- sandbox_permission&#45;&gt;sandbox -->
<g id="edge20" class="edge">
<title>sandbox_permission&#45;&gt;sandbox</title>
<path fill="none" stroke="#ff8c00" stroke-dasharray="5,2" d="M387.44,-551C421.91,-551 463.61,-551 494.06,-551"/>
<polygon fill="#ff8c00" stroke="#ff8c00" points="494.04,-554.5 504.04,-551 494.04,-547.5 494.04,-554.5"/>
<text text-anchor="middle" x="435.38" y="-553.7" font-family="Helvetica,sans-Serif" font-size="9.00">sandbox_id</text>
</g>
<!-- source -->
<g id="node45" class="node">
<title>source</title>
<path fill="#c0c0c0" stroke="black" d="M102.75,-1843C102.75,-1843 72.75,-1843 72.75,-1843 66.75,-1843 60.75,-1837 60.75,-1831 60.75,-1831 60.75,-1819 60.75,-1819 60.75,-1813 66.75,-1807 72.75,-1807 72.75,-1807 102.75,-1807 102.75,-1807 108.75,-1807 114.75,-1813 114.75,-1819 114.75,-1819 114.75,-1831 114.75,-1831 114.75,-1837 108.75,-1843 102.75,-1843"/>
<text text-anchor="middle" x="87.75" y="-1821.3" font-family="Helvetica,sans-Serif" font-size="11.00">source</text>
</g>
<!-- SourceType -->
<g id="node46" class="node">
<title>SourceType</title>
<path fill="#c0c0c0" stroke="black" d="M350.62,-1843C350.62,-1843 295.62,-1843 295.62,-1843 289.62,-1843 283.62,-1837 283.62,-1831 283.62,-1831 283.62,-1819 283.62,-1819 283.62,-1813 289.62,-1807 295.62,-1807 295.62,-1807 350.62,-1807 350.62,-1807 356.62,-1807 362.62,-1813 362.62,-1819 362.62,-1819 362.62,-1831 362.62,-1831 362.62,-1837 356.62,-1843 350.62,-1843"/>
<text text-anchor="middle" x="323.12" y="-1821.3" font-family="Helvetica,sans-Serif" font-size="11.00">SourceType</text>
</g>
<!-- source&#45;&gt;SourceType -->
<g id="edge9" class="edge">
<title>source&#45;&gt;SourceType</title>
<path fill="none" stroke="#666666" d="M115.07,-1825C153.06,-1825 223.99,-1825 272.12,-1825"/>
<polygon fill="#666666" stroke="#666666" points="272.02,-1828.5 282.02,-1825 272.02,-1821.5 272.02,-1828.5"/>
<text text-anchor="middle" x="209.38" y="-1827.7" font-family="Helvetica,sans-Serif" font-size="9.00">source_type</text>
</g>
<!-- archive_reader_version -->
<g id="node47" class="node">
<title>archive_reader_version</title>
<path fill="#c0c0c0" stroke="black" d="M147.5,-1897C147.5,-1897 28,-1897 28,-1897 22,-1897 16,-1891 16,-1885 16,-1885 16,-1873 16,-1873 16,-1867 22,-1861 28,-1861 28,-1861 147.5,-1861 147.5,-1861 153.5,-1861 159.5,-1867 159.5,-1873 159.5,-1873 159.5,-1885 159.5,-1885 159.5,-1891 153.5,-1897 147.5,-1897"/>
<text text-anchor="middle" x="87.75" y="-1875.3" font-family="Helvetica,sans-Serif" font-size="11.00">archive_reader_version</text>
</g>
</g>
</svg>
